# xmcd
#
# Track frame offsets:
#	187
#	3937
#	17262
#	19180
#	65905
#	67205
#	89380
#	93005
#	134632
#	154402
#
# Disc length: 2374 seconds
# Revision: 4
# Processed by: cddbd v1.5.2PL0 Copyright (c) Steve Scherf et al.
# Submitted via: dBpowerAMP V12.0
#
DISCID=8009440a
DTITLE=Various Artist - Blues Explosion
DYEAR=1984
DGENRE=Blues
TTITLE0=Various Artist - Intermezzo 1
TTITLE1=John Hammond - No Money Down
TTITLE2=Various Artist - Intermezzo 2
TTITLE3=Stevie Ray Vaughan - Flood Down In Texas
TTITLE4=Various Artist - Intermezzo 3
TTITLE5=Sugar Blue - Another Man Done Gone
TTITLE6=Various Artist - Intermezzo 4
TTITLE7=Koko Taylor - Wang Dang Doodle
TTITLE8=Luther " Guitar Junior" Johnson  - Walkin' The Dog
TTITLE9=J.B. Hutto - I Feel So Good
EXTD=
EXTT0=
EXTT1=
EXTT2=
EXTT3=
EXTT4=
EXTT5=
EXTT6=
EXTT7=
EXTT8=
EXTT9=
PLAYORDER=
